<?xml version="1.0" standalone="no"?>
<!DOCTYPE svg PUBLIC "-//W3C//DTD SVG 20010904//EN"
 "http://www.w3.org/TR/2001/REC-SVG-20010904/DTD/svg10.dtd">
<svg version="1.0" xmlns="http://www.w3.org/2000/svg"
 width="476.000000pt" height="476.000000pt" viewBox="0 0 476.000000 476.000000"
 preserveAspectRatio="xMidYMid meet">
<metadata>
Created by potrace 1.11, written by Peter Selinger 2001-2013
</metadata>
<g transform="translate(0.000000,476.000000) scale(0.100000,-0.100000)"
fill="#000000" stroke="none">
<path d="M2186 4575 c-3 -8 -12 -15 -21 -15 -8 0 -15 -3 -15 -7 0 -5 -23 -21
-50 -38 -28 -16 -50 -33 -50 -38 0 -4 -4 -6 -8 -3 -4 2 -28 -6 -52 -20 -25
-13 -57 -29 -72 -35 -16 -6 -28 -15 -28 -20 0 -5 -4 -8 -8 -6 -15 4 -131 -58
-131 -71 -1 -7 -6 -10 -12 -6 -6 3 -24 -3 -40 -15 -15 -11 -33 -21 -39 -21 -6
0 -13 -6 -16 -14 -3 -8 -11 -13 -18 -10 -7 3 -28 -9 -47 -26 -60 -53 -67 -58
-72 -54 -3 3 -25 -9 -50 -26 -25 -16 -50 -30 -56 -30 -6 0 -11 -7 -11 -15 0
-8 -6 -15 -13 -15 -7 0 -23 -9 -34 -19 -12 -11 -23 -17 -26 -14 -4 3 -13 -1
-21 -8 -34 -31 -44 -38 -50 -32 -3 3 -12 1 -19 -5 -7 -7 -22 -13 -33 -15 -22
-4 -166 -76 -174 -87 -3 -4 -27 -19 -55 -34 -27 -15 -56 -35 -62 -44 -7 -9
-13 -12 -13 -8 0 4 -7 0 -16 -8 -8 -9 -21 -16 -29 -16 -7 0 -16 -7 -19 -16 -3
-8 -10 -13 -14 -10 -9 5 -103 -41 -112 -55 -3 -4 -12 -9 -20 -11 -8 -2 -21 -9
-28 -16 -8 -7 -19 -9 -25 -5 -7 3 -9 3 -5 -2 8 -8 -15 -35 -30 -35 -5 0 -17
-9 -27 -20 -10 -11 -24 -20 -32 -20 -7 0 -13 -6 -13 -14 0 -8 -5 -16 -12 -18
-9 -3 -12 -55 -10 -209 1 -112 2 -257 2 -321 0 -117 0 -117 27 -130 14 -7 27
-22 29 -33 1 -11 5 -303 8 -648 6 -550 9 -632 22 -653 9 -13 23 -24 30 -24 8
0 14 -4 14 -10 0 -5 7 -10 15 -10 8 0 15 -4 15 -8 0 -5 30 -24 66 -43 37 -19
77 -44 90 -56 13 -13 30 -23 39 -23 8 0 15 -4 15 -10 0 -5 7 -10 15 -10 8 0
15 -4 15 -10 0 -5 11 -10 23 -10 13 0 33 -8 45 -18 45 -37 66 -52 74 -52 4 0
17 -9 28 -20 11 -11 27 -20 35 -20 8 0 15 -4 15 -10 0 -5 7 -10 15 -10 8 0 15
-4 15 -8 0 -9 60 -35 76 -33 7 1 14 -5 18 -14 3 -8 12 -15 21 -15 8 0 15 -4
15 -10 0 -5 7 -10 15 -10 8 0 15 -3 15 -7 0 -5 17 -15 38 -24 98 -43 132 -61
132 -71 0 -5 6 -8 14 -8 8 0 17 -7 20 -16 3 -8 10 -13 15 -10 4 3 21 -5 37
-19 15 -13 30 -23 33 -22 12 2 51 -15 51 -23 0 -5 20 -16 45 -26 25 -9 45 -20
45 -24 0 -4 18 -13 40 -20 22 -7 40 -16 40 -20 0 -4 18 -13 39 -20 21 -7 51
-23 66 -36 16 -13 32 -24 36 -24 8 0 36 -21 65 -48 7 -7 29 -19 49 -27 19 -9
35 -20 35 -27 0 -6 3 -9 6 -5 4 3 25 -3 47 -14 36 -19 44 -20 81 -8 23 7 57
23 76 36 19 13 40 23 47 23 7 0 13 4 13 8 0 5 18 16 40 26 22 10 40 21 40 25
0 4 29 20 65 36 35 17 65 35 65 40 1 11 68 45 88 45 7 0 12 5 12 10 0 6 6 10
14 10 8 0 16 7 20 15 3 8 14 15 24 15 11 0 30 10 44 23 25 24 95 50 110 41 4
-3 8 0 8 6 0 6 8 14 18 17 9 4 34 17 55 30 22 14 41 22 44 20 2 -3 13 2 23 11
40 36 104 74 112 67 3 -3 13 4 23 15 10 11 23 20 30 20 6 0 24 13 40 30 16 16
34 30 40 30 7 0 20 9 30 20 10 11 22 17 26 14 5 -3 9 0 9 6 0 6 4 9 9 6 5 -3
11 0 14 7 3 7 23 19 45 26 23 8 43 20 46 27 3 8 15 14 26 14 11 0 20 5 20 10
0 6 6 10 14 10 8 0 16 4 18 9 2 5 10 11 18 13 8 2 17 5 20 8 12 12 129 80 138
80 5 0 27 13 49 29 23 16 44 27 47 24 3 -4 6 -1 6 5 0 7 5 12 11 12 6 0 17 7
26 15 13 14 14 67 9 433 -6 400 -6 589 -1 789 2 91 12 123 40 123 19 0 27 142
23 430 -3 242 -3 245 -24 248 -12 2 -30 12 -40 23 -9 10 -23 19 -30 19 -7 0
-17 8 -23 17 -5 10 -12 15 -16 12 -3 -4 -20 6 -38 22 -17 16 -37 29 -43 29 -6
0 -30 14 -52 30 -23 17 -42 27 -42 23 0 -5 -4 -3 -8 3 -8 13 -164 94 -180 94
-7 0 -12 6 -12 13 0 11 -81 56 -112 61 -34 6 -67 22 -135 67 -41 26 -83 51
-93 54 -11 4 -20 11 -20 16 0 5 -8 9 -18 9 -11 0 -27 9 -37 20 -10 11 -22 20
-27 20 -5 0 -24 11 -42 25 -18 14 -41 25 -50 25 -9 0 -33 16 -53 35 -19 19
-45 37 -57 41 -11 4 -32 15 -46 24 -76 52 -140 90 -152 90 -8 0 -38 18 -68 40
-29 22 -57 37 -61 34 -5 -3 -9 -1 -9 5 0 6 -18 15 -40 21 -22 6 -44 20 -50 30
-6 11 -17 20 -24 20 -8 0 -19 7 -26 15 -7 8 -16 12 -21 9 -5 -3 -9 0 -9 7 0 7
-3 9 -6 6 -4 -3 -16 0 -28 8 -26 19 -52 19 -60 0z"/>
</g>
</svg>
